<?xml version="1.0" encoding="UTF-8" standalone="no"?>
<svg
   width="32"
   height="32"
   viewBox="0 0 24 24"
   version="1.1"
   id="svg1"
   sodipodi:docname="bookIconTemplate.svg"
   inkscape:version="1.4.3 (0d15f75042, 2025-12-25)"
   xmlns:inkscape="http://www.inkscape.org/namespaces/inkscape"
   xmlns:sodipodi="http://sodipodi.sourceforge.net/DTD/sodipodi-0.dtd"
   xmlns="http://www.w3.org/2000/svg"
   xmlns:svg="http://www.w3.org/2000/svg">
  <defs
     id="defs1" />
  <sodipodi:namedview
     id="namedview1"
     pagecolor="#ffffff"
     bordercolor="#666666"
     borderopacity="1.0"
     inkscape:showpageshadow="2"
     inkscape:pageopacity="0.0"
     inkscape:pagecheckerboard="0"
     inkscape:deskcolor="#d1d1d1"
     inkscape:zoom="24.625"
     inkscape:cx="15.979695"
     inkscape:cy="16"
     inkscape:window-width="1920"
     inkscape:window-height="1016"
     inkscape:window-x="0"
     inkscape:window-y="0"
     inkscape:window-maximized="1"
     inkscape:current-layer="svg1" />
  <!-- Icon from Material Symbols by Google - https://github.com/google/material-design-icons/blob/master/LICENSE -->
  <path
     fill="currentColor"
     d="M 5,16.175 C 5.1666667,16.125 5.3293333,16.083333 5.488,16.05 5.6466667,16.016667 5.8173333,16 6,16 H 7 V 4 H 6 C 5.7166667,4 5.4793333,4.096 5.288,4.288 5.0966667,4.48 5.0006667,4.7173333 5,5 Z M 6,22 C 5.1666667,22 4.4583333,21.708333 3.875,21.125 3.2916667,20.541667 3,19.833333 3,19 V 5 C 3,4.1666667 3.2916667,3.4583333 3.875,2.875 4.4583333,2.2916667 5.1666667,2 6,2 h 6 c 0.283333,0 0.521,0.096 0.713,0.288 C 12.905,2.48 13.000667,2.7173333 13,3 12.999333,3.2826667 12.903333,3.5203333 12.712,3.713 12.520667,3.9056667 12.283333,4.0013333 12,4 H 9 v 12 h 6 v -2 c 0,-0.283333 0.096,-0.520667 0.288,-0.712 C 15.48,13.096667 15.717333,13.000667 16,13 c 0.282667,-6.67e-4 0.520333,0.09533 0.713,0.288 0.192667,0.192667 0.288333,0.43 0.287,0.712 v 4 H 6 C 5.7166667,18 5.4793333,18.096 5.288,18.288 5.0966667,18.48 5.0006667,18.717333 5,19 4.9993333,19.282667 5.0953333,19.520333 5.288,19.713 5.4806667,19.905667 5.718,20.001333 6,20 h 13 v -7 c 0,-0.283333 0.096,-0.520667 0.288,-0.712 C 19.48,12.096667 19.717333,12.000667 20,12 c 0.282667,-6.67e-4 0.520333,0.09533 0.713,0.288 0.192667,0.192667 0.288333,0.43 0.287,0.712 v 7 c 0,0.55 -0.195667,1.021 -0.587,1.413 C 20.021667,21.805 19.550667,22.000667 19,22 Z M 5,16.175 V 4 Z"
     id="path1"
     sodipodi:nodetypes="cssccssccssssssssssccccssssccssssccsssscsscsccc" />
</svg>
