<?xml version="1.0" encoding="UTF-8" standalone="no"?>
<!-- Created with Inkscape (http://www.inkscape.org/) -->

<svg
   width="63.999996"
   height="63.999996"
   viewBox="0 0 16.933332 16.933332"
   version="1.1"
   id="svg1"
   xml:space="preserve"
   sodipodi:docname="book-patternW.svg"
   inkscape:version="1.3.2 (091e20ef0f, 2023-11-25, custom)"
   xmlns:inkscape="http://www.inkscape.org/namespaces/inkscape"
   xmlns:sodipodi="http://sodipodi.sourceforge.net/DTD/sodipodi-0.dtd"
   xmlns="http://www.w3.org/2000/svg"
   xmlns:svg="http://www.w3.org/2000/svg"><sodipodi:namedview
     id="namedview1"
     pagecolor="#ffffff"
     bordercolor="#666666"
     borderopacity="1.0"
     inkscape:showpageshadow="2"
     inkscape:pageopacity="0.0"
     inkscape:pagecheckerboard="0"
     inkscape:deskcolor="#d1d1d1"
     inkscape:zoom="4.4580876"
     inkscape:cx="36.89923"
     inkscape:cy="40.936836"
     inkscape:window-width="1920"
     inkscape:window-height="1026"
     inkscape:window-x="1920"
     inkscape:window-y="30"
     inkscape:window-maximized="1"
     inkscape:current-layer="svg1" /><defs
     id="defs1" /><path
     id="path1"
     style="fill:#e5e5e5;fill-opacity:1;stroke-width:0.352778"
     d="M 10.462157,-1.9954908 7.9678851,0.49878103 8.7162397,1.2471357 8.2170931,1.7462824 7.4687384,0.99792771 6.4711755,1.9954906 8.092489,3.6168041 c 0.2411354,0.2411354 0.5320412,0.3621179 0.8729579,0.3621186 0.3409174,0 0.6321881,-0.1206176 0.8733243,-0.3617537 L 12.956794,0.49914625 12.457647,-4.2677669e-7 C 12.354043,0.10393791 12.229516,0.15602834 12.083836,0.15602905 c -0.14568,0 -0.270605,-0.0520919 -0.374543,-0.15602947677669 C 11.605687,-0.10393876 11.553798,-0.22866745 11.55363,-0.37417729 c -1.67e-4,-0.14551409 0.05172,-0.27023995 0.155663,-0.37417758 z M 8.5912701,2.3696678 10.917455,0.0434831 c 0.02911,0.08730294 0.0685,0.16852759 0.118389,0.24336353 0.04989,0.0748359 0.108148,0.14541227 0.174669,0.21193334 0.07101,0.0706781 0.143848,0.12892819 0.218517,0.17466174 0.07467,0.0457335 0.153635,0.0851307 0.236786,0.11838876 L 9.3396245,3.1180223 C 9.2315291,3.2261177 9.1068025,3.2802637 8.9654476,3.2802637 8.8240942,3.2802609 8.6993655,3.2261184 8.5912701,3.118023 8.4874979,3.0142508 8.4344804,2.89065 8.4323181,2.7471342 8.430153,2.6036184 8.4831746,2.4777633 8.5912701,2.3696678 Z" /><path
     id="path2"
     style="fill:#e5e5e5;fill-opacity:1;stroke-width:0.352778"
     d="m 4.8494968,-1.3721054 c -0.2411361,0.2411361 -0.3617534,0.53240711 -0.3617536,0.87332429 3e-7,0.34091634 0.1209827,0.63182219 0.362119,0.8729584 L 6.4711755,1.9954906 7.4687384,0.99792771 5.4732478,-0.99756291 5.9723945,-1.4967096 7.9678851,0.49878103 10.462157,-1.9954908 7.9675195,-4.4901281 Z" /><path
     id="path1-8"
     style="fill:#e5e5e5;fill-opacity:1;stroke-width:0.352778"
     d="M 10.462156,14.937842 7.9678856,17.432113 8.71624,18.180467 8.2170934,18.679614 7.4687389,17.931259 6.4711763,18.928822 8.0924894,20.550135 c 0.2411354,0.241135 0.5320411,0.362118 0.8729581,0.362118 0.3409171,1e-6 0.6321878,-0.120617 0.8733241,-0.361753 l 3.1180214,-3.118022 -0.499147,-0.499146 c -0.103604,0.103938 -0.228128,0.156031 -0.37381,0.156029 -0.14568,0 -0.270605,-0.05209 -0.374543,-0.15603 -0.103606,-0.103938 -0.155495,-0.228667 -0.155664,-0.374177 -1.67e-4,-0.145513 0.05172,-0.270239 0.155663,-0.374177 z m -1.8708856,4.365157 2.3261846,-2.326184 c 0.0291,0.0873 0.0685,0.168527 0.118389,0.243363 0.04989,0.07483 0.108148,0.145412 0.174669,0.211934 0.07101,0.07068 0.143848,0.128928 0.218516,0.174661 0.07467,0.04574 0.153636,0.08513 0.236787,0.118389 l -2.3261911,2.326191 c -0.1080956,0.108096 -0.232823,0.16224 -0.3741769,0.162242 -0.1413535,2e-6 -0.2660819,-0.05415 -0.3741773,-0.162241 -0.1037721,-0.103772 -0.156791,-0.227372 -0.1589522,-0.370889 -0.00216,-0.143518 0.050856,-0.269371 0.1589519,-0.377466 z" /><path
     id="path2-1"
     style="fill:#e5e5e5;fill-opacity:1;stroke-width:0.352778"
     d="m 4.8494975,15.561226 c -0.2411363,0.241136 -0.3617538,0.532407 -0.3617535,0.873324 4e-7,0.340917 0.120983,0.631823 0.3621192,0.872959 l 1.6213131,1.621313 0.9975626,-0.997563 -1.9954907,-1.99549 0.4991467,-0.499147 1.9954907,1.995491 2.4942704,-2.494271 -2.494637,-2.494638 z" /><path
     id="path1-1"
     style="stroke-width:0.352778;fill:#e5e5e5;fill-opacity:1"
     d="m -2.4946374,5.9720286 -1.122532,1.122532 c -0.2411363,0.2411363 -0.3617535,0.5324072 -0.3617535,0.873324 0,0.3409167 0.1209826,0.6318224 0.3621189,0.8729586 l 3.2426264,3.2426268 c 0.24113685,0.241136 0.53204249,0.362119 0.87295882,0.362119 0.3409164,-10e-7 0.63218778,-0.120617 0.87332408,-0.361754 l 1.122532,-1.122532 -0.4991467,-0.499146 -1.12253202,1.122532 c -0.10809555,0.108095 -0.23282297,0.162239 -0.37417757,0.16224 -0.14135348,3e-6 -0.26608117,-0.05415 -0.37417729,-0.162241 C 0.02083226,11.480917 -0.0321866,11.357317 -0.03434851,11.2138 -0.03651014,11.070282 0.01650859,10.94443 0.12460414,10.836334 L 1.2471362,9.7138021 Z M -2.9934187,7.4691032 -2.494272,6.9699566 0.24957324,9.7138018 -0.24957343,10.212949 Z" /><path
     id="path3"
     style="stroke-width:0.352778;fill:#e5e5e5;fill-opacity:1"
     d="M -2.4946374,5.9720286 1.2471362,9.7138021 2.4507885,8.5101498 c 0.029105,0.087299 0.0685,0.1685275 0.1183895,0.2433635 0.049894,0.07484 0.1081477,0.1454123 0.1746681,0.2119326 0.071014,0.070675 0.1438481,0.1289282 0.2185172,0.1746625 0.074671,0.045736 0.1536345,0.08513 0.2367867,0.1183887 L 1.9954906,10.462157 2.4946373,10.961303 4.4901276,8.9658129 3.9909809,8.4666662 C 3.8873757,8.5706039 3.762852,8.6226985 3.6171689,8.622695 3.4714894,8.622695 3.3465648,8.5706039 3.2426265,8.4666655 3.1390212,8.3627279 3.0871316,8.2379992 3.0869626,8.0924887 3.0867964,7.9469753 3.1386882,7.8222501 3.2426265,7.7183118 L -0.49914705,3.9765382 Z" /><path
     id="path1-1-1"
     style="stroke-width:0.352778;fill:#e5e5e5;fill-opacity:1"
     d="m 14.438694,5.9720282 -1.122532,1.122532 c -0.241136,0.2411361 -0.361753,0.5324071 -0.361753,0.8733243 0,0.3409163 0.120983,0.6318221 0.362119,0.8729584 l 3.242626,3.2426261 c 0.241137,0.241137 0.532043,0.36212 0.872959,0.36212 0.340917,-10e-7 0.632188,-0.120618 0.873324,-0.361754 l 1.122532,-1.122532 -0.499146,-0.499147 -1.122532,1.122532 c -0.108096,0.108096 -0.232823,0.16224 -0.374178,0.162241 -0.141351,0 -0.266081,-0.05415 -0.374178,-0.162241 -0.103771,-0.103771 -0.156788,-0.227372 -0.158952,-0.370888 -0.0022,-0.143516 0.05086,-0.269371 0.158953,-0.377466 L 18.180468,9.7138019 Z M 13.939913,7.4691026 14.43906,6.969956 17.182905,9.7138012 16.683759,10.212948 Z" /><path
     id="path3-0"
     style="stroke-width:0.352778;fill:#e5e5e5;fill-opacity:1"
     d="m 14.438694,5.9720282 3.741774,3.7417737 1.203653,-1.2036527 c 0.0291,0.087299 0.0685,0.1685276 0.118389,0.2433635 0.04989,0.07484 0.108148,0.1454123 0.174668,0.2119326 0.07101,0.070675 0.143849,0.1289282 0.218518,0.1746625 0.07467,0.045736 0.153634,0.08513 0.236786,0.1183887 l -1.203659,1.2036595 0.499146,0.499147 1.99549,-1.99549 -0.499146,-0.4991467 c -0.103606,0.1039377 -0.228129,0.1560323 -0.373812,0.1560288 -0.14568,0 -0.270605,-0.052091 -0.374543,-0.1560295 C 20.072353,8.362728 20.020463,8.2379993 20.020294,8.0924888 20.020128,7.9469754 20.07202,7.8222502 20.175958,7.7183119 L 16.434184,3.9765382 Z" /></svg>
