<?xml version="1.0" encoding="UTF-8" standalone="no"?>
<!-- Created with Inkscape (http://www.inkscape.org/) -->

<svg
   width="63.999996"
   height="63.999996"
   viewBox="0 0 16.933332 16.933332"
   version="1.1"
   id="svg1"
   xml:space="preserve"
   sodipodi:docname="star-pattern.svg"
   inkscape:export-filename="star-patternP.png"
   inkscape:export-xdpi="96"
   inkscape:export-ydpi="96"
   xmlns:inkscape="http://www.inkscape.org/namespaces/inkscape"
   xmlns:sodipodi="http://sodipodi.sourceforge.net/DTD/sodipodi-0.dtd"
   xmlns="http://www.w3.org/2000/svg"
   xmlns:svg="http://www.w3.org/2000/svg"><sodipodi:namedview
     id="namedview1"
     pagecolor="#ffffff"
     bordercolor="#666666"
     borderopacity="1.0"
     inkscape:showpageshadow="2"
     inkscape:pageopacity="0.0"
     inkscape:pagecheckerboard="0"
     inkscape:deskcolor="#d1d1d1" /><defs
     id="defs1"><linearGradient
       id="linearGradient6"
       inkscape:swatch="gradient"><stop
         style="stop-color:#d4de00;stop-opacity:0.9190262;"
         offset="0"
         id="stop7" /><stop
         style="stop-color:#33ff55;stop-opacity:0;"
         offset="1"
         id="stop8" /></linearGradient></defs><g
     id="layer1"
     style="fill:#a855f7;fill-opacity:1;fill-rule:nonzero"><path
       id="path1"
       style="fill:#a855f7;fill-opacity:1;fill-rule:nonzero;stroke-width:0.352778"
       d="M -9.7863853e-5,6.9708003 V 10.759716 C 0.03726914,10.759516 0.07105414,10.751076 0.10118794,10.733878 c 0.030067,-0.0172 0.053246,-0.04543 0.069246,-0.08423 L 0.75024388,9.2766029 2.2374915,9.1468951 c 0.0414,-0.00707 0.074235,-0.020674 0.098702,-0.041341 0.024467,-0.021133 0.044061,-0.048199 0.058394,-0.081132 0.0148,-0.032907 0.017368,-0.067353 0.00723,-0.1033528 -0.010333,-0.036 -0.031512,-0.067151 -0.063045,-0.093018 L 1.2122311,7.8508502 1.552262,6.4008091 c 0.013333,-0.04019 0.012383,-0.07754 -0.00362,-0.112138 -0.015533,-0.0348 -0.038646,-0.06125 -0.069246,-0.07958 -0.030333,-0.01833 -0.061534,-0.02959 -0.093534,-0.03359 -0.032253,-0.0037 -0.067303,0.0039 -0.1049032,0.02274 L 4.1883615e-4,6.9713173 Z" /><path
       id="path2"
       style="fill:#a855f7;fill-opacity:1;fill-rule:nonzero;stroke-width:0.352778"
       d="m 6.54343,16.933821 h 3.846277 l -0.7110679,-0.6165 0.3405479,-1.450041 c 0.01333,-0.04019 0.01187,-0.07754 -0.0041,-0.112137 -0.015534,-0.0348 -0.038647,-0.06125 -0.069247,-0.07958 -0.030333,-0.01833 -0.061018,-0.02959 -0.093018,-0.03359 -0.032253,-0.0037 -0.067303,0.0039 -0.1049032,0.02274 l -1.280575,0.773079 -1.2820923,-0.773596 c -0.037413,-0.0184 -0.072186,-0.02555 -0.1043863,-0.02222 -0.032,0.0035 -0.063201,0.01427 -0.093534,0.03307 -0.030334,0.01833 -0.053514,0.04498 -0.069246,0.07958 -0.015867,0.03479 -0.016817,0.07214 -0.00362,0.112138 l 0.340031,1.450041 z" /><path
       id="path1-6-5"
       style="fill:#a855f7;fill-opacity:1;fill-rule:nonzero;stroke-width:0.352778"
       d="M 6.5389386,4.8805563e-4 6.12346,0.36118906 c -0.031533,0.0256 -0.052712,0.0565 -0.063045,0.0925 -0.00993,0.03597 -0.00737,0.07042 0.00723,0.103353 0.014333,0.0332 0.033928,0.06047 0.058394,0.08113 0.024467,0.02093 0.057102,0.03479 0.098702,0.04186 l 1.4872476,0.129708 0.57981,1.37304304 c 0.01573,0.0386 0.0386,0.06632 0.06873,0.08372 0.03007,0.0174 0.06414,0.02636 0.101802,0.02636 0.03737,-2e-4 0.07115,-0.0092 0.101286,-0.02636 0.03007,-0.0172 0.05325,-0.04492 0.06925,-0.08372 l 0.57981,-1.37304304 1.4872474,-0.129708 c 0.0414,-0.0071 0.07424,-0.02119 0.0987,-0.04186 0.02447,-0.02113 0.04406,-0.0482 0.05839,-0.08113 0.0148,-0.03291 0.01685,-0.06735 0.0067,-0.103353 -0.01033,-0.036 -0.03099,-0.06663 -0.06253,-0.0925 L 10.385189,4.8805563e-4 Z" /><path
       id="path2-9"
       style="fill:#a855f7;fill-opacity:1;fill-rule:nonzero;stroke-width:0.352778"
       d="M 6.5390982,4.8805563e-4 H 10.385375 L 9.6743072,-0.61601194 10.014855,-2.0660529 c 0.01333,-0.04019 0.01187,-0.07754 -0.0041,-0.112137 -0.01553,-0.0348 -0.03865,-0.06125 -0.06925,-0.07958 -0.03033,-0.01833 -0.06102,-0.02959 -0.09302,-0.03359 -0.03225,-0.0037 -0.0673,0.0039 -0.104904,0.02274 l -1.2805688,0.773075 -1.282093,-0.773596 c -0.03741,-0.0184 -0.07219,-0.02555 -0.104386,-0.02222 -0.032,0.0035 -0.0632,0.01427 -0.09353,0.03307 -0.03033,0.01833 -0.05351,0.04498 -0.06925,0.07958 -0.01587,0.03479 -0.01682,0.07214 -0.0036,0.112138 l 0.340031,1.45004096 z" /><path
       id="path1-9"
       style="fill:#a855f7;fill-opacity:1;fill-rule:nonzero;stroke-width:0.352778"
       d="m 16.933236,6.9708003 v 3.7889157 c 0.03737,-2e-4 0.07115,-0.0086 0.101286,-0.02584 0.03007,-0.0172 0.05325,-0.04543 0.06925,-0.08423 l 0.579809,-1.3730424 1.487248,-0.1297078 c 0.0414,-0.00707 0.07423,-0.020675 0.0987,-0.041341 0.02447,-0.021133 0.04406,-0.048199 0.05839,-0.081132 0.0148,-0.032907 0.01737,-0.067353 0.0072,-0.1033528 -0.01033,-0.036 -0.03151,-0.067151 -0.06304,-0.093018 l -1.126541,-0.9772009 0.340031,-1.450041 c 0.01333,-0.04019 0.01238,-0.07754 -0.0036,-0.112138 -0.01553,-0.0348 -0.03865,-0.06125 -0.06925,-0.07958 -0.03033,-0.01833 -0.06153,-0.02959 -0.09353,-0.03359 -0.03225,-0.0037 -0.0673,0.0039 -0.104903,0.02274 l -1.280535,0.7730802 z" /><path
       id="path3-7"
       style="fill:#a855f7;fill-opacity:1;fill-rule:nonzero;stroke-width:0.352778"
       d="m 14.526148,8.9737049 c 0.0012,0.017227 0.0051,0.034176 0.0124,0.050643 0.01433,0.0332 0.03393,0.059949 0.05839,0.080615 0.02447,0.020933 0.05762,0.034791 0.09922,0.041858 l 1.486731,0.1297078 0.57981,1.3730423 c 0.01573,0.0386 0.03911,0.06683 0.06925,0.08423 0.03007,0.0174 0.06362,0.02584 0.101286,0.02584 V 6.9707263 L 15.65166,6.1981631 c -0.03741,-0.0184 -0.07219,-0.02607 -0.104386,-0.02274 -0.032,0.0035 -0.0632,0.01479 -0.09353,0.03359 -0.03033,0.01833 -0.053,0.04446 -0.06873,0.07906 -0.01587,0.03479 -0.01733,0.07265 -0.0041,0.112655 l 0.34051,1.4495312 -1.127063,0.9782349 c -0.03153,0.0256 -0.0522,0.056501 -0.06253,0.092501 -0.005,0.017987 -0.0069,0.035483 -0.0057,0.05271 z" /></g></svg>
